<?xml version="1.0" encoding="utf-8"?>
<!-- Generator: Adobe Illustrator 16.0.0, SVG Export Plug-In . SVG Version: 6.00 Build 0)  -->
<!DOCTYPE svg PUBLIC "-//W3C//DTD SVG 1.1//EN" "http://www.w3.org/Graphics/SVG/1.1/DTD/svg11.dtd">
<svg version="1.1" id="Layer_1" xmlns="http://www.w3.org/2000/svg" xmlns:xlink="http://www.w3.org/1999/xlink" x="0px" y="0px"
	 width="469.002px" height="223.331px" viewBox="0 0 469.002 223.331" enable-background="new 0 0 469.002 223.331"
	 xml:space="preserve">
<rect fill="#FFFFFF" stroke="#FFFFFF" stroke-width="2" stroke-miterlimit="10" width="469.002" height="223.331"/>
<line fill="none" stroke="#000000" stroke-miterlimit="10" x1="59.477" y1="21.035" x2="59.477" y2="41.09"/>
<line fill="none" stroke="#000000" stroke-miterlimit="10" x1="59.477" y1="31.063" x2="443.311" y2="31.063"/>
<line fill="none" stroke="#000000" stroke-miterlimit="10" x1="443.311" y1="21.035" x2="443.311" y2="41.09"/>
<line fill="none" stroke="#000000" stroke-miterlimit="10" x1="131.897" y1="21.035" x2="131.897" y2="41.09"/>
<line fill="none" stroke="#000000" stroke-miterlimit="10" x1="255.572" y1="21.035" x2="255.572" y2="41.09"/>
<line fill="none" stroke="#000000" stroke-miterlimit="10" x1="296.24" y1="21.035" x2="296.24" y2="41.09"/>
<g>
	<path d="M17.195,32.346h-5.974l-1.342,3.731H7.941l5.444-14.258h1.646l5.454,14.258h-1.929L17.195,32.346z M11.789,30.808h4.848
		l-2.429-6.668L11.789,30.808z"/>
</g>
<line fill="none" stroke="#000000" stroke-miterlimit="10" x1="59.477" y1="86.215" x2="59.477" y2="106.27"/>
<line fill="none" stroke="#000000" stroke-miterlimit="10" x1="59.477" y1="96.242" x2="443.311" y2="96.242"/>
<line fill="none" stroke="#000000" stroke-miterlimit="10" x1="443.311" y1="86.215" x2="443.311" y2="106.27"/>
<line fill="none" stroke="#000000" stroke-miterlimit="10" x1="131.897" y1="86.215" x2="131.897" y2="106.27"/>
<line fill="none" stroke="#000000" stroke-miterlimit="10" x1="221.032" y1="86.215" x2="221.032" y2="106.27"/>
<line fill="none" stroke="#000000" stroke-miterlimit="10" x1="331.208" y1="86.215" x2="331.208" y2="106.27"/>
<g>
	<path d="M9.321,101.256V86.999h4.662c1.547,0,2.71,0.32,3.491,0.959c0.78,0.64,1.17,1.586,1.17,2.84
		c0,0.666-0.189,1.255-0.568,1.768c-0.379,0.513-0.895,0.909-1.547,1.19c0.77,0.215,1.379,0.625,1.826,1.229
		c0.447,0.604,0.671,1.324,0.671,2.159c0,1.279-0.415,2.285-1.244,3.016s-2.001,1.097-3.516,1.097H9.321z M11.202,93.08h2.84
		c0.823,0,1.48-0.206,1.973-0.618c0.493-0.412,0.739-0.972,0.739-1.678c0-0.785-0.229-1.356-0.686-1.712s-1.152-0.535-2.085-0.535
		h-2.781V93.08z M11.202,94.587v5.131h3.104c0.875,0,1.565-0.227,2.071-0.681c0.506-0.454,0.759-1.079,0.759-1.875
		c0-1.717-0.934-2.576-2.8-2.576H11.202z"/>
</g>
<g>
	<path d="M64.588,58.407c0,2.122-0.362,3.698-1.087,4.729c-0.725,1.032-1.857,1.547-3.398,1.547c-1.521,0-2.647-0.504-3.378-1.513
		c-0.731-1.009-1.11-2.515-1.136-4.52v-2.419c0-2.095,0.362-3.652,1.087-4.671c0.725-1.019,1.861-1.527,3.408-1.527
		c1.534,0,2.664,0.491,3.388,1.474s1.097,2.499,1.116,4.548V58.407z M62.776,55.929c0-1.534-0.215-2.652-0.646-3.354
		c-0.431-0.702-1.113-1.053-2.046-1.053c-0.927,0-1.603,0.349-2.027,1.048s-0.643,1.772-0.656,3.222v2.898
		c0,1.541,0.223,2.678,0.67,3.413c0.447,0.734,1.125,1.102,2.032,1.102c0.894,0,1.559-0.346,1.993-1.038s0.661-1.782,0.681-3.271
		V55.929z"/>
</g>
<g>
	<path d="M136.854,64.488h-9.342v-1.302l4.936-5.484c0.731-0.829,1.235-1.503,1.513-2.022s0.416-1.056,0.416-1.611
		c0-0.744-0.225-1.354-0.675-1.831c-0.451-0.477-1.051-0.715-1.802-0.715c-0.901,0-1.601,0.256-2.1,0.769
		c-0.5,0.513-0.75,1.226-0.75,2.14h-1.812c0-1.312,0.423-2.373,1.268-3.183c0.846-0.809,1.977-1.214,3.393-1.214
		c1.325,0,2.373,0.347,3.144,1.042s1.156,1.621,1.156,2.776c0,1.404-0.895,3.075-2.683,5.014l-3.819,4.143h7.158V64.488z"/>
</g>
<g>
	<path d="M252.575,57.339l0.725-7.109h7.306v1.674h-5.768l-0.431,3.888c0.698-0.411,1.492-0.617,2.379-0.617
		c1.299,0,2.331,0.43,3.095,1.288c0.764,0.858,1.146,2.019,1.146,3.481c0,1.469-0.396,2.626-1.19,3.472
		c-0.793,0.846-1.901,1.268-3.324,1.268c-1.26,0-2.289-0.349-3.085-1.048c-0.796-0.698-1.25-1.665-1.361-2.898h1.713
		c0.111,0.816,0.401,1.431,0.872,1.846s1.09,0.622,1.861,0.622c0.842,0,1.503-0.287,1.983-0.862c0.479-0.574,0.72-1.368,0.72-2.38
		c0-0.953-0.26-1.718-0.779-2.296c-0.519-0.578-1.209-0.867-2.071-0.867c-0.79,0-1.41,0.173-1.861,0.519l-0.479,0.392
		L252.575,57.339z"/>
</g>
<g>
	<path d="M300.077,50.22v1.537h-0.333c-1.41,0.026-2.532,0.444-3.368,1.253c-0.836,0.81-1.318,1.949-1.449,3.418
		c0.751-0.862,1.775-1.293,3.075-1.293c1.24,0,2.23,0.438,2.972,1.313c0.741,0.875,1.111,2.004,1.111,3.388
		c0,1.469-0.4,2.644-1.199,3.525c-0.8,0.881-1.872,1.322-3.217,1.322c-1.365,0-2.472-0.524-3.32-1.572s-1.272-2.397-1.272-4.049
		v-0.695c0-2.624,0.56-4.63,1.679-6.017c1.12-1.387,2.786-2.097,4.999-2.13H300.077z M297.698,56.644
		c-0.621,0-1.191,0.186-1.714,0.558s-0.885,0.839-1.087,1.4v0.666c0,1.175,0.265,2.122,0.793,2.84
		c0.529,0.718,1.188,1.077,1.979,1.077c0.815,0,1.457-0.3,1.924-0.901s0.7-1.387,0.7-2.36c0-0.979-0.236-1.771-0.71-2.375
		S298.481,56.644,297.698,56.644z"/>
</g>
<g>
	<path d="M443.208,64.488h-1.821V52.414l-3.652,1.341V52.11l5.189-1.949h0.284V64.488z"/>
	<path d="M457.457,58.407c0,2.122-0.362,3.698-1.088,4.729c-0.725,1.032-1.856,1.547-3.397,1.547c-1.521,0-2.647-0.504-3.379-1.513
		c-0.73-1.009-1.109-2.515-1.136-4.52v-2.419c0-2.095,0.362-3.652,1.087-4.671s1.86-1.527,3.408-1.527
		c1.534,0,2.663,0.491,3.388,1.474s1.097,2.499,1.117,4.548V58.407z M455.644,55.929c0-1.534-0.215-2.652-0.646-3.354
		c-0.432-0.702-1.113-1.053-2.047-1.053c-0.927,0-1.603,0.349-2.027,1.048s-0.643,1.772-0.656,3.222v2.898
		c0,1.541,0.224,2.678,0.671,3.413c0.447,0.734,1.125,1.102,2.032,1.102c0.895,0,1.559-0.346,1.993-1.038
		c0.434-0.692,0.66-1.782,0.68-3.271V55.929z"/>
</g>
<g>
	<path d="M64.588,126.372c0,2.122-0.362,3.698-1.087,4.729c-0.725,1.032-1.857,1.547-3.398,1.547c-1.521,0-2.647-0.504-3.378-1.513
		c-0.731-1.009-1.11-2.515-1.136-4.52v-2.419c0-2.095,0.362-3.652,1.087-4.671c0.725-1.019,1.861-1.527,3.408-1.527
		c1.534,0,2.664,0.491,3.388,1.474s1.097,2.499,1.116,4.548V126.372z M62.776,123.894c0-1.534-0.215-2.652-0.646-3.354
		c-0.431-0.702-1.113-1.053-2.046-1.053c-0.927,0-1.603,0.349-2.027,1.048s-0.643,1.772-0.656,3.222v2.898
		c0,1.541,0.223,2.678,0.67,3.413c0.447,0.734,1.125,1.102,2.032,1.102c0.894,0,1.559-0.346,1.993-1.038s0.661-1.782,0.681-3.271
		V123.894z"/>
</g>
<g>
	<path d="M136.854,132.453h-9.342v-1.302l4.936-5.484c0.731-0.829,1.235-1.503,1.513-2.022s0.416-1.056,0.416-1.611
		c0-0.744-0.225-1.354-0.675-1.831c-0.451-0.477-1.051-0.715-1.802-0.715c-0.901,0-1.601,0.256-2.1,0.769
		c-0.5,0.513-0.75,1.226-0.75,2.14h-1.812c0-1.312,0.423-2.373,1.268-3.183c0.846-0.809,1.977-1.214,3.393-1.214
		c1.325,0,2.373,0.347,3.144,1.042s1.156,1.621,1.156,2.776c0,1.404-0.895,3.075-2.683,5.014l-3.819,4.143h7.158V132.453z"/>
</g>
<g>
	<path d="M224.294,127.664h1.978v1.479h-1.978v3.31h-1.821v-3.31h-6.493v-1.067l6.385-9.88h1.929V127.664z M218.037,127.664h4.436
		v-6.992l-0.216,0.392L218.037,127.664z"/>
</g>
<g>
	<path d="M336.026,119.213l-5.904,13.24h-1.9l5.886-12.77h-7.717v-1.488h9.636V119.213z"/>
</g>
<g>
	<path d="M443.208,132.453h-1.821v-12.074l-3.652,1.341v-1.645l5.189-1.949h0.284V132.453z"/>
	<path d="M457.457,126.372c0,2.122-0.362,3.698-1.088,4.729c-0.725,1.032-1.856,1.547-3.397,1.547c-1.521,0-2.647-0.504-3.379-1.513
		c-0.73-1.009-1.109-2.515-1.136-4.52v-2.419c0-2.095,0.362-3.652,1.087-4.671s1.86-1.527,3.408-1.527
		c1.534,0,2.663,0.491,3.388,1.474s1.097,2.499,1.117,4.548V126.372z M455.644,123.894c0-1.534-0.215-2.652-0.646-3.354
		c-0.432-0.702-1.113-1.053-2.047-1.053c-0.927,0-1.603,0.349-2.027,1.048s-0.643,1.772-0.656,3.222v2.898
		c0,1.541,0.224,2.678,0.671,3.413c0.447,0.734,1.125,1.102,2.032,1.102c0.895,0,1.559-0.346,1.993-1.038
		c0.434-0.692,0.66-1.782,0.68-3.271V123.894z"/>
</g>
<line fill="none" stroke="#000000" stroke-miterlimit="10" x1="59.477" y1="159.882" x2="59.477" y2="179.937"/>
<line fill="none" stroke="#000000" stroke-miterlimit="10" x1="59.477" y1="169.909" x2="443.311" y2="169.909"/>
<line fill="none" stroke="#000000" stroke-miterlimit="10" x1="443.311" y1="159.882" x2="443.311" y2="179.937"/>
<line fill="none" stroke="#000000" stroke-miterlimit="10" x1="131.897" y1="159.882" x2="131.897" y2="179.937"/>
<line fill="none" stroke="#000000" stroke-miterlimit="10" x1="221.032" y1="159.882" x2="221.032" y2="179.937"/>
<line fill="none" stroke="#000000" stroke-miterlimit="10" x1="331.208" y1="159.882" x2="331.208" y2="179.937"/>
<g>
	<path d="M19.809,170.399c-0.176,1.508-0.733,2.672-1.669,3.491c-0.937,0.819-2.182,1.229-3.736,1.229
		c-1.685,0-3.034-0.604-4.049-1.812c-1.015-1.208-1.522-2.824-1.522-4.847v-1.371c0-1.325,0.236-2.491,0.71-3.496
		c0.473-1.005,1.144-1.777,2.012-2.316s1.874-0.808,3.016-0.808c1.515,0,2.729,0.422,3.643,1.268
		c0.914,0.845,1.446,2.016,1.596,3.51h-1.89c-0.164-1.139-0.518-1.964-1.063-2.475c-0.545-0.511-1.308-0.766-2.287-0.766
		c-1.201,0-2.143,0.444-2.825,1.333s-1.023,2.153-1.023,3.793v1.382c0,1.549,0.323,2.78,0.97,3.695
		c0.646,0.915,1.55,1.372,2.712,1.372c1.044,0,1.846-0.236,2.404-0.71c0.558-0.473,0.928-1.297,1.111-2.473H19.809z"/>
</g>
<g>
	<path d="M64.588,200.039c0,2.122-0.362,3.698-1.087,4.729c-0.725,1.032-1.857,1.547-3.398,1.547c-1.521,0-2.647-0.504-3.378-1.513
		c-0.731-1.009-1.11-2.515-1.136-4.52v-2.419c0-2.095,0.362-3.652,1.087-4.671c0.725-1.019,1.861-1.527,3.408-1.527
		c1.534,0,2.664,0.491,3.388,1.474s1.097,2.499,1.116,4.548V200.039z M62.776,197.561c0-1.534-0.215-2.652-0.646-3.354
		c-0.431-0.702-1.113-1.053-2.046-1.053c-0.927,0-1.603,0.349-2.027,1.048s-0.643,1.772-0.656,3.222v2.898
		c0,1.541,0.223,2.678,0.67,3.413c0.447,0.734,1.125,1.102,2.032,1.102c0.894,0,1.559-0.346,1.993-1.038s0.661-1.782,0.681-3.271
		V197.561z"/>
</g>
<g>
	<path d="M136.854,206.12h-9.342v-1.302l4.936-5.484c0.731-0.829,1.235-1.503,1.513-2.022s0.416-1.056,0.416-1.611
		c0-0.744-0.225-1.354-0.675-1.831c-0.451-0.477-1.051-0.715-1.802-0.715c-0.901,0-1.601,0.256-2.1,0.769
		c-0.5,0.513-0.75,1.226-0.75,2.14h-1.812c0-1.312,0.423-2.373,1.268-3.183c0.846-0.809,1.977-1.214,3.393-1.214
		c1.325,0,2.373,0.347,3.144,1.042s1.156,1.621,1.156,2.776c0,1.404-0.895,3.075-2.683,5.014l-3.819,4.143h7.158V206.12z"/>
</g>
<g>
	<path d="M224.294,201.331h1.978v1.479h-1.978v3.31h-1.821v-3.31h-6.493v-1.067l6.385-9.88h1.929V201.331z M218.037,201.331h4.436
		v-6.992l-0.216,0.392L218.037,201.331z"/>
</g>
<g>
	<path d="M336.026,192.88l-5.904,13.24h-1.9l5.886-12.77h-7.717v-1.488h9.636V192.88z"/>
</g>
<g>
	<path d="M443.208,206.12h-1.821v-12.074l-3.652,1.341v-1.645l5.189-1.949h0.284V206.12z"/>
	<path d="M457.457,200.039c0,2.122-0.362,3.698-1.088,4.729c-0.725,1.032-1.856,1.547-3.397,1.547c-1.521,0-2.647-0.504-3.379-1.513
		c-0.73-1.009-1.109-2.515-1.136-4.52v-2.419c0-2.095,0.362-3.652,1.087-4.671s1.86-1.527,3.408-1.527
		c1.534,0,2.663,0.491,3.388,1.474s1.097,2.499,1.117,4.548V200.039z M455.644,197.561c0-1.534-0.215-2.652-0.646-3.354
		c-0.432-0.702-1.113-1.053-2.047-1.053c-0.927,0-1.603,0.349-2.027,1.048s-0.643,1.772-0.656,3.222v2.898
		c0,1.541,0.224,2.678,0.671,3.413c0.447,0.734,1.125,1.102,2.032,1.102c0.895,0,1.559-0.346,1.993-1.038
		c0.434-0.692,0.66-1.782,0.68-3.271V197.561z"/>
</g>
<line fill="none" stroke="#000000" stroke-miterlimit="10" x1="255.572" y1="159.882" x2="255.572" y2="179.937"/>
<line fill="none" stroke="#000000" stroke-miterlimit="10" x1="296.24" y1="159.882" x2="296.24" y2="179.937"/>
<g>
	<path d="M252.575,199.186l0.725-7.109h7.306v1.674h-5.768l-0.431,3.888c0.698-0.411,1.492-0.617,2.379-0.617
		c1.299,0,2.331,0.43,3.095,1.288c0.764,0.858,1.146,2.019,1.146,3.481c0,1.469-0.396,2.626-1.19,3.472
		c-0.793,0.846-1.901,1.268-3.324,1.268c-1.26,0-2.289-0.349-3.085-1.048c-0.796-0.698-1.25-1.665-1.361-2.898h1.713
		c0.111,0.816,0.401,1.431,0.872,1.846s1.09,0.622,1.861,0.622c0.842,0,1.503-0.287,1.983-0.862c0.479-0.574,0.72-1.368,0.72-2.38
		c0-0.953-0.26-1.718-0.779-2.296c-0.519-0.578-1.209-0.867-2.071-0.867c-0.79,0-1.41,0.173-1.861,0.519l-0.479,0.392
		L252.575,199.186z"/>
</g>
<g>
	<path d="M300.077,192.067v1.537h-0.333c-1.41,0.026-2.532,0.444-3.368,1.253c-0.836,0.81-1.318,1.949-1.449,3.418
		c0.751-0.862,1.775-1.293,3.075-1.293c1.24,0,2.23,0.438,2.972,1.313c0.741,0.875,1.111,2.004,1.111,3.388
		c0,1.469-0.4,2.644-1.199,3.525c-0.8,0.881-1.872,1.322-3.217,1.322c-1.365,0-2.472-0.524-3.32-1.572s-1.272-2.397-1.272-4.049
		v-0.695c0-2.624,0.56-4.63,1.679-6.017c1.12-1.387,2.786-2.097,4.999-2.13H300.077z M297.698,198.491
		c-0.621,0-1.191,0.186-1.714,0.558s-0.885,0.839-1.087,1.4v0.666c0,1.175,0.265,2.122,0.793,2.84
		c0.529,0.718,1.188,1.077,1.979,1.077c0.815,0,1.457-0.3,1.924-0.901s0.7-1.387,0.7-2.36c0-0.979-0.236-1.771-0.71-2.375
		S298.481,198.491,297.698,198.491z"/>
</g>
<line fill="none" stroke="#EF4136" stroke-width="2" stroke-miterlimit="10" stroke-dasharray="5" x1="59.333" y1="69.581" x2="59.333" y2="178.831"/>
<line fill="none" stroke="#EF4136" stroke-width="2" stroke-miterlimit="10" stroke-dasharray="5" x1="131.897" y1="69.581" x2="131.897" y2="178.831"/>
<line fill="none" stroke="#EF4136" stroke-width="2" stroke-miterlimit="10" stroke-dasharray="5" x1="221.032" y1="69.581" x2="221.032" y2="179.937"/>
<line fill="none" stroke="#EF4136" stroke-width="2" stroke-miterlimit="10" stroke-dasharray="5" x1="255.572" y1="69.581" x2="255.572" y2="178.831"/>
<line fill="none" stroke="#EF4136" stroke-width="2" stroke-miterlimit="10" stroke-dasharray="5" x1="296.24" y1="69.581" x2="296.24" y2="179.937"/>
<line fill="none" stroke="#EF4136" stroke-width="2" stroke-miterlimit="10" stroke-dasharray="5" x1="331.208" y1="69.581" x2="331.208" y2="178.831"/>
<line fill="none" stroke="#EF4136" stroke-width="2" stroke-miterlimit="10" stroke-dasharray="5" x1="443.311" y1="69.581" x2="443.311" y2="179.937"/>
<g>
</g>
<g>
</g>
<g>
</g>
<g>
</g>
<g>
</g>
<g>
</g>
</svg>
